REM DIRINDEX 1\2,1\3,1\4,1\5,1\6
REM DIRNAME cjc091,folder01,folder02,folder03,folder04,folder05
TITLE ""
FILE "CD2-64.mp3" MP3
  TRACK 01 AUDIO
    TITLE "6:cjc091_2749"
    INDEX 01 00:00:00
  TRACK 02 AUDIO
    TITLE "0:"
    INDEX 01 00:02:08
  TRACK 03 AUDIO
    TITLE "2:cjc091_2750"
    INDEX 01 00:03:33
  TRACK 04 AUDIO
    TITLE "0:"
    INDEX 01 00:05:24
  TRACK 05 AUDIO
    TITLE "3:cjc091_2751"
    INDEX 01 00:05:44
  TRACK 06 AUDIO
    TITLE "0:"
    INDEX 01 00:06:41
  TRACK 07 AUDIO
    TITLE "4:cjc091_2752"
    INDEX 01 00:06:59
  TRACK 08 AUDIO
    TITLE "0:"
    INDEX 01 00:10:29
  TRACK 09 AUDIO
    TITLE "2:cjc091_2753"
    INDEX 01 00:11:40
  TRACK 10 AUDIO
    TITLE "0:"
    INDEX 01 00:13:08
  TRACK 11 AUDIO
    TITLE "3:cjc091_2754"
    INDEX 01 00:13:14
  TRACK 12 AUDIO
    TITLE "0:"
    INDEX 01 00:14:35
  TRACK 13 AUDIO
    TITLE "4:cjc091_2755"
    INDEX 01 00:14:60
  TRACK 14 AUDIO
    TITLE "0:"
    INDEX 01 00:19:05
  TRACK 15 AUDIO
    TITLE "2:cjc091_2756"
    INDEX 01 00:20:16
  TRACK 16 AUDIO
    TITLE "0:"
    INDEX 01 00:21:62
  TRACK 17 AUDIO
    TITLE "3:cjc091_2757"
    INDEX 01 00:22:11
  TRACK 18 AUDIO
    TITLE "0:"
    INDEX 01 00:23:44
  TRACK 19 AUDIO
    TITLE "4:cjc091_2758"
    INDEX 01 00:23:67
  TRACK 20 AUDIO
    TITLE "0:"
    INDEX 01 00:28:45
  TRACK 21 AUDIO
    TITLE "2:cjc091_2759"
    INDEX 01 00:29:58
  TRACK 22 AUDIO
    TITLE "0:"
    INDEX 01 00:30:71
  TRACK 23 AUDIO
    TITLE "3:cjc091_2760"
    INDEX 01 00:31:18
  TRACK 24 AUDIO
    TITLE "0:"
    INDEX 01 00:32:21
  TRACK 25 AUDIO
    TITLE "4:cjc091_2761"
    INDEX 01 00:32:48
  TRACK 26 AUDIO
    TITLE "0:"
    INDEX 01 00:35:66
  TRACK 27 AUDIO
    TITLE "2:cjc091_2762"
    INDEX 01 00:37:08
  TRACK 28 AUDIO
    TITLE "0:"
    INDEX 01 00:39:21
  TRACK 29 AUDIO
    TITLE "3:cjc091_2763"
    INDEX 01 00:39:37
  TRACK 30 AUDIO
    TITLE "0:"
    INDEX 01 00:41:32
  TRACK 31 AUDIO
    TITLE "4:cjc091_2764"
    INDEX 01 00:41:53
  TRACK 32 AUDIO
    TITLE "0:"
    INDEX 01 00:44:65
  TRACK 33 AUDIO
    TITLE "2:cjc091_2765"
    INDEX 01 00:46:06
  TRACK 34 AUDIO
    TITLE "0:"
    INDEX 01 00:47:17
  TRACK 35 AUDIO
    TITLE "3:cjc091_2766"
    INDEX 01 00:47:40
  TRACK 36 AUDIO
    TITLE "0:"
    INDEX 01 00:49:27
  TRACK 37 AUDIO
    TITLE "4:cjc091_2767"
    INDEX 01 00:49:51
  TRACK 38 AUDIO
    TITLE "0:"
    INDEX 01 00:52:20
  TRACK 39 AUDIO
    TITLE "2:cjc091_2768"
    INDEX 01 00:53:33
  TRACK 40 AUDIO
    TITLE "0:"
    INDEX 01 00:54:62
  TRACK 41 AUDIO
    TITLE "3:cjc091_2769"
    INDEX 01 00:55:04
  TRACK 42 AUDIO
    TITLE "0:"
    INDEX 01 00:56:57
  TRACK 43 AUDIO
    TITLE "4:cjc091_2770"
    INDEX 01 00:57:03
  TRACK 44 AUDIO
    TITLE "0:"
    INDEX 01 01:04:15
  TRACK 45 AUDIO
    TITLE "2:cjc091_2771"
    INDEX 01 01:05:28
  TRACK 46 AUDIO
    TITLE "0:"
    INDEX 01 01:06:51
  TRACK 47 AUDIO
    TITLE "3:cjc091_2772"
    INDEX 01 01:06:61
  TRACK 48 AUDIO
    TITLE "0:"
    INDEX 01 01:08:11
  TRACK 49 AUDIO
    TITLE "4:cjc091_2773"
    INDEX 01 01:08:33
  TRACK 50 AUDIO
    TITLE "0:"
    INDEX 01 01:11:41
  TRACK 51 AUDIO
    TITLE "2:cjc091_2774"
    INDEX 01 01:12:54
  TRACK 52 AUDIO
    TITLE "0:"
    INDEX 01 01:13:65
  TRACK 53 AUDIO
    TITLE "3:cjc091_2775"
    INDEX 01 01:14:16
  TRACK 54 AUDIO
    TITLE "0:"
    INDEX 01 01:16:05
  TRACK 55 AUDIO
    TITLE "4:cjc091_2776"
    INDEX 01 01:16:26
  TRACK 56 AUDIO
    TITLE "0:"
    INDEX 01 01:19:23
  TRACK 57 AUDIO
    TITLE "2:cjc091_2777"
    INDEX 01 01:20:34
  TRACK 58 AUDIO
    TITLE "0:"
    INDEX 01 01:21:70
  TRACK 59 AUDIO
    TITLE "3:cjc091_2778"
    INDEX 01 01:22:15
  TRACK 60 AUDIO
    TITLE "0:"
    INDEX 01 01:24:20
  TRACK 61 AUDIO
    TITLE "4:cjc091_2779"
    INDEX 01 01:24:43
  TRACK 62 AUDIO
    TITLE "0:"
    INDEX 01 01:29:03
  TRACK 63 AUDIO
    TITLE "2:cjc091_2780"
    INDEX 01 01:30:15
  TRACK 64 AUDIO
    TITLE "0:"
    INDEX 01 01:32:33
  TRACK 65 AUDIO
    TITLE "3:cjc091_2781"
    INDEX 01 01:32:55
  TRACK 66 AUDIO
    TITLE "0:"
    INDEX 01 01:34:50
  TRACK 67 AUDIO
    TITLE "4:cjc091_2782"
    INDEX 01 01:34:73
  TRACK 68 AUDIO
    TITLE "0:"
    INDEX 01 01:38:24
  TRACK 69 AUDIO
    TITLE "2:cjc091_2783"
    INDEX 01 01:39:33
  TRACK 70 AUDIO
    TITLE "0:"
    INDEX 01 01:40:74
  TRACK 71 AUDIO
    TITLE "3:cjc091_2784"
    INDEX 01 01:41:01
  TRACK 72 AUDIO
    TITLE "0:"
    INDEX 01 01:42:08
  TRACK 73 AUDIO
    TITLE "4:cjc091_2785"
    INDEX 01 01:42:33
  TRACK 74 AUDIO
    TITLE "0:"
    INDEX 01 01:45:71
  TRACK 75 AUDIO
    TITLE "2:cjc091_2786"
    INDEX 01 01:47:13
  TRACK 76 AUDIO
    TITLE "0:"
    INDEX 01 01:48:50
  TRACK 77 AUDIO
    TITLE "3:cjc091_2787"
    INDEX 01 01:48:69
  TRACK 78 AUDIO
    TITLE "0:"
    INDEX 01 01:50:56
  TRACK 79 AUDIO
    TITLE "4:cjc091_2788"
    INDEX 01 01:51:05
  TRACK 80 AUDIO
    TITLE "0:"
    INDEX 01 01:53:53
  TRACK 81 AUDIO
    TITLE "2:cjc091_2789"
    INDEX 01 01:54:68
  TRACK 82 AUDIO
    TITLE "0:"
    INDEX 01 01:56:08
  TRACK 83 AUDIO
    TITLE "3:cjc091_2790"
    INDEX 01 01:56:32
  TRACK 84 AUDIO
    TITLE "0:"
    INDEX 01 01:57:41
  TRACK 85 AUDIO
    TITLE "4:cjc091_2791"
    INDEX 01 01:57:64
  TRACK 86 AUDIO
    TITLE "0:"
    INDEX 01 02:01:48
  TRACK 87 AUDIO
    TITLE "2:cjc091_2792"
    INDEX 01 02:02:58
  TRACK 88 AUDIO
    TITLE "0:"
    INDEX 01 02:04:13
  TRACK 89 AUDIO
    TITLE "3:cjc091_2793"
    INDEX 01 02:04:37
  TRACK 90 AUDIO
    TITLE "0:"
    INDEX 01 02:07:02
  TRACK 91 AUDIO
    TITLE "4:cjc091_2794"
    INDEX 01 02:07:27
  TRACK 92 AUDIO
    TITLE "0:"
    INDEX 01 02:11:12
